<svg width="80" height="24" viewBox="0 0 80 24" fill="none" xmlns="http://www.w3.org/2000/svg">
<path fill-rule="evenodd" clip-rule="evenodd" d="M49.0373 18.4578C44.4406 21.823 37.7898 23.5962 32.0542 23.5962C24.0203 23.5962 16.7796 20.6542 11.2881 15.7576C10.861 15.3748 11.2474 14.8509 11.7559 15.1531C17.6745 18.5586 24.9762 20.6139 32.522 20.6139C37.6067 20.6139 43.2203 19.5661 48.3661 17.41C49.1593 17.0674 49.8101 17.9137 49.0373 18.4578ZM50.9491 16.3017C50.3593 15.5561 47.0644 15.9591 45.5796 16.1203C45.1322 16.1808 45.0508 15.7778 45.4576 15.5158C48.0813 13.6821 52.3932 14.206 52.9017 14.8307C53.4101 15.4554 52.7796 19.7273 50.2983 21.7625C49.9118 22.0849 49.5661 21.9036 49.7288 21.5006C50.2983 20.1303 51.5389 17.0473 50.9491 16.3017Z" fill="#FF9900"/>
<path fill-rule="evenodd" clip-rule="evenodd" d="M45.6814 2.57928V0.806026C45.6814 0.544068 45.8847 0.362711 46.1288 0.362711H54.183C54.4474 0.362711 54.6508 0.544068 54.6508 0.806026V2.33748C54.6508 2.59943 54.4271 2.92185 54.0407 3.46591L49.8712 9.37006C51.4169 9.32975 53.0644 9.55141 54.4678 10.3373C54.7932 10.5186 54.8746 10.7806 54.8949 11.0224V12.9166C54.8949 13.1785 54.6102 13.4808 54.3051 13.3196C51.8237 12.0299 48.5491 11.8889 45.8034 13.3397C45.5186 13.4808 45.2339 13.1987 45.2339 12.9367V11.1232C45.2339 10.8411 45.2339 10.3373 45.539 9.89397L50.3593 3.0226H46.1491C45.9051 3.0226 45.6814 2.84124 45.6814 2.57928ZM16.3322 13.6823H13.8915C13.6475 13.6621 13.4644 13.5009 13.4644 13.2793V0.826177C13.4644 0.584369 13.6678 0.382863 13.9322 0.382863H16.2102C16.4542 0.403014 16.6373 0.564218 16.6576 0.806026V2.43823H16.6983C17.2881 0.866478 18.4068 0.141054 19.9119 0.141054C21.4373 0.141054 22.3932 0.866478 23.0847 2.43823C23.6746 0.866478 25.0169 0.141054 26.461 0.141054C27.478 0.141054 28.6169 0.564219 29.2881 1.5113C30.061 2.55913 29.8983 4.07043 29.8983 5.42053V13.2793C29.8983 13.5211 29.6949 13.7226 29.4305 13.7226H26.9898C26.7458 13.7024 26.5424 13.5211 26.5424 13.2793V6.69002C26.5424 6.1661 26.583 4.85631 26.4814 4.35254C26.2983 3.52637 25.7492 3.28456 25.0373 3.28456C24.4475 3.28456 23.8169 3.66742 23.5729 4.31224C23.3288 4.93691 23.3491 5.98475 23.3491 6.69002V13.2793C23.3491 13.5211 23.1458 13.7226 22.8814 13.7226H20.4407C20.1966 13.7024 19.9932 13.5211 19.9932 13.2793V6.69002C19.9932 5.29962 20.2169 3.26441 18.4881 3.26441C16.739 3.26441 16.8 5.25932 16.8 6.69002V13.2793C16.8203 13.4808 16.5966 13.6823 16.3322 13.6823ZM61.5864 0.120904C65.2271 0.120904 67.1796 3.20396 67.1796 7.13333C67.1796 10.9217 65.0034 13.9443 61.5864 13.9443C58.0271 13.9443 56.0746 10.8612 56.0746 7.01243C56.0746 3.12335 58.0474 0.120904 61.5864 0.120904ZM61.6068 2.65989C59.7966 2.65989 59.6949 5.09812 59.6949 6.60942C59.6949 8.12072 59.6746 11.3851 61.5864 11.3851C63.478 11.3851 63.5797 8.76554 63.5797 7.17363C63.5797 6.1258 63.539 4.87646 63.2136 3.86893C62.9288 3.00245 62.3797 2.65989 61.6068 2.65989ZM71.878 13.6823H69.4373C69.1932 13.6621 68.9898 13.4808 68.9898 13.239V0.785876C69.0102 0.564219 69.2136 0.382863 69.4576 0.382863H71.7356C71.939 0.403014 72.122 0.544068 72.1627 0.725423V2.61959H72.2034C72.8949 0.92693 73.8508 0.100753 75.539 0.100753C76.6373 0.100753 77.7152 0.483615 78.3864 1.57175C79.0169 2.55913 79.0169 4.25179 79.0169 5.44068V13.2793C78.9966 13.5009 78.7932 13.6621 78.5491 13.6621H76.1288C75.9051 13.642 75.722 13.4808 75.7017 13.2793V6.52881C75.7017 5.15857 75.8644 3.1838 74.1763 3.1838C73.5864 3.1838 73.0373 3.58682 72.7525 4.17119C72.4068 4.93691 72.3661 5.68249 72.3661 6.52881V13.239C72.3661 13.4808 72.1424 13.6823 71.878 13.6823ZM39.2746 7.73785C39.2746 8.68493 39.2949 9.47081 38.8068 10.3171C38.4203 11.0023 37.7898 11.4254 37.1186 11.4254C36.183 11.4254 35.6339 10.7201 35.6339 9.67232C35.6339 7.5968 37.5051 7.23409 39.2746 7.23409V7.73785ZM41.7356 13.6621C41.5729 13.8032 41.3491 13.8234 41.1661 13.7226C40.3525 13.0576 40.2102 12.7352 39.7627 12.1105C38.4203 13.4606 37.4644 13.8838 35.7356 13.8838C33.6814 13.8838 32.0746 12.6345 32.0746 10.0955C32.0746 8.12072 33.1525 6.79077 34.678 6.1258C36 5.54143 37.8712 5.44068 39.2746 5.27947V4.95706C39.2746 4.37269 39.3152 3.70772 38.9695 3.20396C38.6644 2.76064 38.0949 2.57928 37.5864 2.57928C36.6508 2.57928 35.8169 3.0629 35.6136 4.03013C35.5729 4.25179 35.4102 4.4533 35.1864 4.47345L32.8068 4.21149C32.6034 4.17119 32.3797 4.00998 32.4407 3.70772C32.9898 0.846328 35.5932 0 37.9119 0C39.1119 0 40.6576 0.322411 41.5932 1.20904C42.7932 2.31733 42.6712 3.78832 42.6712 5.38023V9.16855C42.6712 10.297 43.139 10.8008 43.5864 11.4254C43.7491 11.6471 43.7695 11.909 43.5661 12.0702C43.1186 12.4733 42.2441 13.239 41.7356 13.6621ZM7.17966 7.73785C7.17966 8.68493 7.2 9.47081 6.71186 10.3171C6.32542 11.0023 5.71525 11.4254 5.02373 11.4254C4.08814 11.4254 3.53898 10.7201 3.53898 9.67232C3.53898 7.5968 5.41017 7.23409 7.17966 7.23409V7.73785ZM9.66102 13.6621C9.4983 13.8032 9.27458 13.8234 9.09153 13.7226C8.27797 13.0576 8.13559 12.7352 7.68813 12.1105C6.34576 13.4606 5.38983 13.8838 3.66102 13.8838C1.60678 13.8838 0 12.6345 0 10.0955C0 8.12072 1.07797 6.79077 2.60339 6.1258C3.92542 5.54143 5.79661 5.44068 7.2 5.27947V4.95706C7.2 4.37269 7.24068 3.70772 6.89491 3.20396C6.58983 2.76064 6.02034 2.57928 5.51186 2.57928C4.57627 2.57928 3.74237 3.0629 3.53898 4.03013C3.49831 4.25179 3.33559 4.4533 3.11186 4.47345L0.732203 4.21149C0.528814 4.17119 0.305085 4.00998 0.366102 3.70772C0.915254 0.846328 3.51864 0 5.83729 0C7.03729 0 8.58305 0.322411 9.51864 1.20904C10.7186 2.31733 10.5966 3.78832 10.5966 5.38023V9.16855C10.5966 10.297 11.0644 10.8008 11.5119 11.4254C11.6746 11.6471 11.6949 11.909 11.5119 12.0702C11.0441 12.4733 10.1492 13.239 9.66102 13.6621Z" fill="#263238"/>
</svg>
