<svg width="70" height="28" viewBox="0 0 70 28" fill="none" xmlns="http://www.w3.org/2000/svg">
<path d="M8.98472 6.06116C4.08383 6.06116 0 8.1358 0 14.3951C0 19.3539 2.74615 22.4762 9.11162 22.4762C16.604 22.4762 17.0843 17.5516 17.0843 17.5516H13.4535C13.4535 17.5516 12.675 20.2034 8.88981 20.2034C5.80668 20.2034 3.58924 18.1247 3.58924 15.2127H17.4635V13.3847C17.4638 10.5033 15.6302 6.06116 8.98472 6.06116ZM8.85824 8.39713C11.7934 8.39713 13.7943 10.1911 13.7943 12.8797H3.67007C3.66964 10.0253 6.28101 8.39713 8.85824 8.39713Z" fill="#E53238"/>
<path d="M17.4613 0V19.3326C17.4613 20.4298 17.3828 21.9705 17.3828 21.9705H20.8449C20.8449 21.9705 20.9693 20.8641 20.9693 19.8529C20.9693 19.8529 22.68 22.5234 27.3318 22.5234C32.2307 22.5234 35.5574 19.13 35.5574 14.2682C35.5574 9.74567 32.5012 6.10796 27.3396 6.10796C22.5062 6.10796 21.0043 8.71228 21.0043 8.71228V0H17.4613ZM26.446 8.49969C29.7725 8.49969 31.8878 10.9631 31.8878 14.2686C31.8878 17.8136 29.4449 20.1325 26.4699 20.1325C22.9197 20.1325 21.0047 17.3665 21.0047 14.3004C21.0047 11.4432 22.7231 8.49969 26.446 8.49969Z" fill="#0064D2"/>
<path d="M44.1631 6.06116C36.7903 6.06116 36.317 10.0894 36.317 10.7331H39.9869C39.9869 10.7331 40.1793 8.38138 43.9103 8.38138C46.3342 8.38138 48.2128 9.48861 48.2128 11.6171V12.3749H43.9103C38.1981 12.3749 35.1783 14.042 35.1783 17.4256C35.1783 20.7552 37.9684 22.567 41.7396 22.567C46.8785 22.567 48.5333 19.7339 48.5333 19.7339C48.5333 20.8608 48.6201 21.9714 48.6201 21.9714H51.8828C51.8828 21.9714 51.7561 20.5947 51.7561 19.7148V12.1023C51.7559 7.11135 47.7214 6.06116 44.1631 6.06116ZM48.2125 14.6477V15.6576C48.2125 16.9753 47.3978 20.2506 42.6008 20.2506C39.9741 20.2506 38.8473 18.9427 38.8473 17.4259C38.848 14.6653 42.6407 14.6477 48.2125 14.6477Z" fill="#F5AF02"/>
<path d="M49.7798 6.69275H53.9085L59.8335 18.5375L65.7453 6.69275H69.4853L58.7174 27.7801H54.7942L57.901 21.9018L49.7798 6.69275Z" fill="#86B817"/>
</svg>
