<svg width="85" height="24" viewBox="0 0 85 24" fill="none" xmlns="http://www.w3.org/2000/svg">
<g clip-path="url(#clip0_412_440)">
<path d="M9.35905 0.00256348L7.16237 6.84118H1.90735e-05L5.78208 11.0705L3.61065 17.9433L9.35905 13.7139L15.1327 17.9433L12.936 11.0705L18.6844 6.84118H11.5557L9.35905 0.00256348Z" fill="#E22130"/>
<path d="M38.7828 6.23565C38.3451 5.79225 37.8738 5.46823 37.2763 5.28064C36.7124 5.05893 36.0475 4.96514 35.3321 4.96514C34.6083 4.96514 33.9518 5.09304 33.2869 5.38296C32.6304 5.67287 32.0918 6.08217 31.6541 6.52557L31.6204 6.55968C31.4016 6.81549 31.208 7.07129 31.0565 7.35268C30.9303 7.60849 30.8041 7.83019 30.7451 8.01779C30.6862 7.88988 30.5852 7.66818 30.459 7.44648C30.2402 7.02866 30.0466 6.71316 29.8951 6.58526C29.4574 6.07364 28.9524 5.72404 28.296 5.44265C27.6395 5.15273 26.9493 5.02483 26.1582 5.02483C25.6532 5.02483 24.9294 5.08452 24.1467 5.46823C23.2377 5.91163 22.4802 6.61084 21.95 7.63407V5.34885H21.2262V18.1052H21.95V10.8487C21.95 10.0216 22.0426 9.32241 22.2362 8.68289C22.4213 8.04337 22.7075 7.56586 23.0862 7.08835C23.3976 6.64495 23.8689 6.29534 24.4076 6.07364C24.9378 5.81783 25.5101 5.68993 26.0993 5.72404C26.8231 5.75814 27.4459 5.88605 28.0182 6.14186C28.5485 6.39767 28.9945 6.78138 29.3649 7.22478C29.6763 7.66818 29.8951 8.05189 30.0213 8.4953C30.2065 9.03249 30.2738 9.67201 30.2738 10.5673V18.0796H30.9976V10.8914C30.9976 10.0046 31.0313 9.27125 31.1828 8.66583C31.3427 8.09453 31.5615 7.65113 31.9992 7.07129C32.3779 6.55968 32.8492 6.21007 33.5057 5.95426C34.0359 5.76667 34.6335 5.63877 35.1974 5.63877C35.8286 5.63877 36.3589 5.73256 36.8639 5.92868C37.3688 6.1248 37.7392 6.40619 38.0927 6.7558C38.5303 7.1992 38.8501 7.74492 39.0353 8.44413C39.2541 9.14334 39.3467 9.93635 39.3467 10.9255V18.0796H40.0705L40.1968 10.8914C40.1968 9.84255 40.0705 8.92164 39.818 8.15422C39.5992 7.38679 39.2794 6.71316 38.7828 6.23565ZM53.0654 8.58909C52.6867 7.70229 51.9629 6.80696 51.0202 6.16744C49.9177 5.40001 48.6047 5.02483 47.2244 5.02483C44.7164 5.02483 43.1762 6.16744 42.2924 7.15656C41.2236 8.36739 40.6007 10.0216 40.6007 11.71C40.6007 13.3983 41.232 15.0525 42.2924 16.2633C43.1425 17.2184 44.7079 18.3951 47.2244 18.3951C48.5121 18.3951 49.6736 18.0796 50.7088 17.4742C51.6851 16.8347 52.4679 16.0075 53.0654 14.899V18.1137H53.7892V5.38296H53.0654V8.58909ZM52.6614 9.32241C52.7877 9.67201 52.9139 10.0216 52.9728 10.3712C53.0654 10.7549 53.0991 11.1642 53.0991 11.5138C53.1327 11.9317 53.0991 12.3068 53.0402 12.6564C52.9813 13.0743 52.8803 13.4239 52.754 13.7394C52.3416 14.9161 51.6262 15.9308 50.6499 16.6044C49.7073 17.3036 48.5121 17.6532 47.2918 17.6532C45.4738 17.6532 43.9673 16.9881 42.8647 15.7773C41.9221 14.6944 41.3245 13.2022 41.3245 11.6417C41.3245 9.9534 41.9558 8.46119 43.0162 7.34416C44.1188 6.26123 45.5917 5.63024 47.2244 5.63024C48.4196 5.63024 49.581 5.97984 50.5237 6.58526C51.5 7.31858 52.249 8.23949 52.6614 9.32241ZM56.5582 7.28447C57.2147 6.67906 57.8796 6.29534 58.5361 6.01395C59.1926 5.75814 59.9164 5.59613 60.8001 5.59613H60.859C61.9279 5.59613 63.022 5.91163 63.9394 6.45735C65.0083 7.15656 65.8247 8.11158 66.2623 9.32241L66.296 9.3821H67.1124L67.0535 9.25419C66.5485 7.82167 65.6058 6.64495 64.3518 5.88605C63.3166 5.24653 62.0625 4.93103 60.8337 4.93103C59.0158 4.93103 57.3494 5.63024 56.1206 6.87517C54.8918 8.12011 54.2016 9.83403 54.2016 11.6758C54.2016 13.3898 54.8581 15.044 55.927 16.2548C57.1558 17.6191 58.8811 18.3524 60.9516 18.3524C62.2982 18.3524 63.6196 17.9346 64.6885 17.1757C65.7573 16.4168 66.5737 15.3595 67.045 14.089L67.104 13.9611H66.2876L66.2539 14.0208C65.9425 14.9417 65.2776 15.837 64.4023 16.468C63.4007 17.261 62.113 17.6447 60.7917 17.6447C60.0089 17.6447 59.2515 17.4827 58.5277 17.2013C57.8038 16.8858 57.2063 16.468 56.6424 15.9564C56.0785 15.3851 55.6661 14.7455 55.3547 13.9867C55.0433 13.2533 54.8834 12.4262 54.8834 11.5991C54.8834 10.772 55.0685 9.91077 55.3547 9.15187C55.6156 8.43561 56.0532 7.79609 56.5582 7.28447ZM65.0335 7.22478C65.5974 7.76198 66.0687 8.46971 66.3802 9.29683C66.0687 8.4953 65.5974 7.83019 65.0335 7.22478Z" fill="#231F20"/>
<path d="M77.2794 5.31468H76.463L76.4294 5.37437C76.4294 5.43406 75.2006 8.33323 73.9802 11.258L71.5647 17.0137L69.2754 11.258C67.8025 7.4379 66.9525 5.39995 66.9525 5.37437L66.9188 5.31468H66.1024L71.127 18.0113L68.863 23.1616H69.6794L69.7131 23.1019C69.7131 23.1019 69.772 22.9399 69.873 22.6841C70.2517 21.7973 71.2869 19.3415 72.4821 16.5788C72.7935 15.8455 73.1133 15.0866 73.4584 14.3191L76.4125 7.41231C76.9175 6.23559 77.2289 5.46817 77.2289 5.44259L77.2794 5.31468ZM82.9352 11.8975C82.2451 11.3859 81.395 11.1301 80.545 10.9425L80.4524 10.9084C79.4761 10.6184 78.8533 10.3371 78.4409 10.0216C77.9696 9.60374 77.7171 9.10065 77.6834 8.33323C77.6834 7.98362 77.7171 7.63402 77.8433 7.3441C77.9359 7.0286 78.1295 6.77279 78.3483 6.51698C78.6008 6.22707 78.9122 6.03947 79.2236 5.87746C79.6023 5.71545 79.9811 5.65576 80.3851 5.65576H80.444C80.8227 5.65576 81.1678 5.71545 81.4455 5.84335C81.7569 5.97126 82.0431 6.15885 82.2619 6.38055C82.4807 6.60225 82.6743 6.89217 82.7922 7.20767C82.9184 7.52316 82.9773 7.87277 82.9773 8.25648V8.35028H83.7011V8.27354C83.7011 7.35263 83.3561 6.52551 82.7922 5.9201C82.1946 5.31468 81.3782 5.03329 80.3766 5.03329C79.5013 5.03329 78.6513 5.32321 78.0201 5.8263C77.2962 6.43172 76.9512 7.29294 76.9512 8.34175C76.9848 9.33088 77.3299 10.0557 77.9527 10.6014C78.6092 11.1386 79.4929 11.4285 80.3682 11.6502C81.4371 11.906 82.1862 12.2556 82.6575 12.699C83.1625 13.2106 83.3813 13.8161 83.415 14.6688V14.7625C83.415 15.1804 83.3561 15.5897 83.1961 15.9052C83.0362 16.2548 82.8511 16.5703 82.5649 16.8261C82.3124 17.116 81.9673 17.3377 81.6223 17.4912C81.2435 17.6532 80.8395 17.7129 80.4271 17.7129C79.5182 17.7129 78.7018 17.423 78.1379 16.8858C77.574 16.3145 77.2878 15.547 77.2626 14.6261V14.5323L76.5388 14.5664V14.8222C76.5388 15.2656 76.6313 15.6835 76.7913 16.0928C76.9512 16.5106 77.17 16.8858 77.4814 17.1757C77.8601 17.5594 78.2978 17.8749 78.8028 18.0625C79.3078 18.2501 79.838 18.378 80.4356 18.378C80.9658 18.378 81.4708 18.2501 81.9421 18.0625C82.4134 17.8408 82.8174 17.5509 83.1709 17.2013C83.4823 16.8517 83.7685 16.4338 83.9284 15.9904C84.1135 15.547 84.1809 15.0695 84.1472 14.5579C84.0967 13.33 83.6843 12.4773 82.9352 11.8975ZM76.867 4.35966L77.7171 3.75425L78.5671 4.35966L78.222 3.34496L79.0974 2.70544H78.0621L77.7171 1.71631L77.4057 2.70544H76.3704L77.1868 3.34496L76.867 4.35966Z" fill="#231F20"/>
</g>
<defs>
<clipPath id="clip0_412_440">
<rect width="84.1808" height="23.1638" fill="white"/>
</clipPath>
</defs>
</svg>
