<svg width="31" height="22" viewBox="0 0 31 22" fill="none" xmlns="http://www.w3.org/2000/svg">
<path d="M50.5538 13.6209C50.5538 13.7933 50.5384 13.9711 50.4909 14.1272C50.2938 14.7757 49.6179 15.324 48.7723 15.324C48.0672 15.324 47.5072 14.9262 47.5072 14.0859C47.5072 12.7999 48.9322 12.4447 50.5542 12.4536L50.5538 13.6208V13.6209ZM53.0981 11.3798C53.0981 9.25916 52.1859 7.39321 49.1038 7.39321C47.5216 7.39321 46.266 7.83464 45.5806 8.22808L46.0826 9.93289C46.709 9.54006 47.7073 9.21487 48.652 9.21487C50.2154 9.21056 50.4714 10.0943 50.4714 10.6599V10.7938C47.0635 10.7888 44.9093 11.961 44.9093 14.3489C44.9093 15.808 46.0065 17.1746 47.9138 17.1746C49.0857 17.1746 50.0673 16.7099 50.6547 15.9648H50.7127C50.7127 15.9648 51.1014 17.5824 53.2473 16.9635C53.1353 16.2908 53.0985 15.5727 53.0985 14.7091L53.0982 11.3798H53.0981ZM0 4.50528C0 4.50528 2.22696 13.5699 2.58256 15.041C2.99739 16.7582 3.74502 17.3903 5.89954 16.9635L7.28999 11.3438C7.64257 9.94722 7.87853 8.95151 8.10571 7.5323H8.14526C8.30475 8.96654 8.53103 9.95153 8.82116 11.3484C8.82116 11.3484 9.3869 13.8998 9.67714 15.2394C9.96768 16.5787 10.7763 17.4233 12.887 16.9635L16.2003 4.50488H13.526L12.3943 9.8916C12.09 11.4589 11.8142 12.685 11.6013 14.1186H11.5635C11.3701 12.6977 11.1239 11.5216 10.8149 9.99412L9.63759 4.50488H6.85065L5.59064 9.85573C5.23402 11.4822 4.8996 12.795 4.68775 14.1808H4.64922C4.43172 12.8758 4.14219 11.2252 3.82885 9.6516C3.82885 9.6516 3.08081 5.82418 2.81772 4.50488L0 4.50528ZM21.2591 13.6209C21.2591 13.7933 21.2437 13.9711 21.1955 14.1272C20.9987 14.7757 20.3224 15.324 19.4769 15.324C18.7717 15.324 18.2125 14.9262 18.2125 14.0859C18.2125 12.7999 19.637 12.4447 21.2594 12.4536L21.2591 13.6208V13.6209ZM23.803 11.3798C23.803 9.25916 22.8909 7.39321 19.8094 7.39321C18.2268 7.39321 16.9702 7.83464 16.2852 8.22808L16.7865 9.93289C17.4128 9.54006 18.4111 9.21487 19.3562 9.21487C20.9207 9.21056 21.1767 10.0943 21.1767 10.6599V10.7938C17.7674 10.7888 15.6142 11.961 15.6142 14.3489C15.6142 15.808 16.7108 17.1746 18.6166 17.1746C19.7902 17.1746 20.7712 16.7099 21.3593 15.9648H21.4166C21.4166 15.9648 21.8064 17.5824 23.9517 16.9635C23.8396 16.2908 23.803 15.5727 23.803 14.7091V11.3798ZM28.0487 14.3189V4.50528H25.5015V16.9639H28.0487V14.3189ZM61.3714 4.50528V13.6958C61.3714 14.9635 61.612 15.8506 62.125 16.3936C62.5746 16.8683 63.3131 17.1756 64.1988 17.1756C64.9522 17.1756 65.6929 17.0327 66.0424 16.904L66.0096 14.9272C65.7495 14.9903 65.4509 15.0414 65.0421 15.0414C64.1741 15.0414 63.8839 14.4891 63.8839 13.3515V9.83509H66.1021V7.45103H63.8839V4.50528H61.3714ZM54.7966 7.60456V16.9639H57.4243V12.1717C57.4243 11.9127 57.44 11.687 57.4813 11.4806C57.6757 10.4762 58.4484 9.83509 59.5584 9.83509C59.8627 9.83509 60.0805 9.86796 60.3164 9.90123V7.45103C60.1184 7.41185 59.984 7.39351 59.7377 7.39351C58.7571 7.39351 57.6415 8.02204 57.1733 9.3703H57.1022V7.60456H54.7966ZM29.8323 7.60456V16.9639H32.3924V11.4756C32.3924 11.218 32.4228 10.9456 32.5126 10.7095C32.7248 10.157 33.2425 9.5098 34.0686 9.5098C35.1021 9.5098 35.5848 10.3773 35.5848 11.6294V16.9632H38.1428V11.408C38.1428 11.1623 38.1766 10.8661 38.2497 10.6494C38.4598 10.0205 39.0175 9.50909 39.7856 9.50909C40.8328 9.50909 41.3355 10.3614 41.3355 11.8351V16.9629H43.8953V11.4502C43.8953 8.54335 42.4093 7.39261 40.7316 7.39261C39.9893 7.39261 39.4028 7.5773 38.8724 7.90018C38.427 8.17276 38.0275 8.55898 37.679 9.06666H37.6411C37.2366 8.05802 36.2848 7.39311 35.0444 7.39311C33.451 7.39311 32.7349 8.19551 32.3005 8.87595H32.2623V7.60426H29.8323" fill="#133B77"/>
</svg>
