<svg width="20" height="20" viewBox="0 0 20 20" fill="none" xmlns="http://www.w3.org/2000/svg">
<path fill-rule="evenodd" clip-rule="evenodd" d="M7.87657 13.2062C4.03257 13.2062 0.749573 13.7872 0.749573 16.1152C0.749573 18.4432 4.01257 19.0452 7.87657 19.0452C11.7216 19.0452 15.0036 18.4632 15.0036 16.1362C15.0036 13.8092 11.7416 13.2062 7.87657 13.2062Z" stroke="#0066FF" stroke-width="1.5" stroke-linecap="round" stroke-linejoin="round"/>
<path fill-rule="evenodd" clip-rule="evenodd" d="M7.8766 9.8859C10.3996 9.8859 12.4446 7.8409 12.4446 5.3179C12.4446 2.7949 10.3996 0.749901 7.8766 0.749901C5.3546 0.749901 3.3096 2.7949 3.3096 5.3179C3.3006 7.8319 5.3306 9.8769 7.8456 9.8859H7.8766Z" stroke="#0066FF" stroke-width="1.5" stroke-linecap="round" stroke-linejoin="round"/>
<path d="M17.2037 6.6691V10.6791" stroke="#0066FF" stroke-width="1.5" stroke-linecap="round" stroke-linejoin="round"/>
<path d="M19.2495 8.674H15.1595" stroke="#0066FF" stroke-width="1.5" stroke-linecap="round" stroke-linejoin="round"/>
</svg>
