<svg width="59" height="172" viewBox="0 0 59 172" fill="none" xmlns="http://www.w3.org/2000/svg">
<g id="Iconly/Light/Buy">
<g id="Buy">
<path id="Stroke 1" d="M37.7501 3.24988L39.8301 3.60988L40.7931 15.0829C40.8701 16.0199 41.6531 16.7389 42.5931 16.7359H53.5021C54.3991 16.7379 55.1601 16.0779 55.2871 15.1899L56.2361 8.63188C56.3421 7.89888 55.8331 7.21888 55.1011 7.11288C55.0371 7.10388 40.1641 7.09888 40.1641 7.09888" stroke="#0FC494" stroke-width="1.5" stroke-linecap="round" stroke-linejoin="round"/>
<path id="Stroke 3" d="M49.1251 10.7948H51.8981" stroke="#0FC494" stroke-width="1.5" stroke-linecap="round" stroke-linejoin="round"/>
<path id="Stroke 5" fill-rule="evenodd" clip-rule="evenodd" d="M42.1545 20.2025C42.4555 20.2025 42.6985 20.4465 42.6985 20.7465C42.6985 21.0475 42.4555 21.2915 42.1545 21.2915C41.8535 21.2915 41.6105 21.0475 41.6105 20.7465C41.6105 20.4465 41.8535 20.2025 42.1545 20.2025Z" fill="#0FC494" stroke="#0FC494" stroke-width="1.5" stroke-linecap="round" stroke-linejoin="round"/>
<path id="Stroke 7" fill-rule="evenodd" clip-rule="evenodd" d="M53.4347 20.2025C53.7357 20.2025 53.9797 20.4465 53.9797 20.7465C53.9797 21.0475 53.7357 21.2915 53.4347 21.2915C53.1337 21.2915 52.8907 21.0475 52.8907 20.7465C52.8907 20.4465 53.1337 20.2025 53.4347 20.2025Z" fill="#0FC494" stroke="#0FC494" stroke-width="1.5" stroke-linecap="round" stroke-linejoin="round"/>
</g>
</g>
</svg>
