<svg width="20" height="24" viewBox="0 0 20 24" fill="none" xmlns="http://www.w3.org/2000/svg">
<path d="M16.5118 10.559C15.6761 9.53091 14.7208 8.71181 13.6721 8.12278C13.8439 7.91958 13.9794 7.68131 14.0669 7.41577C14.4103 6.37003 13.9087 5.12784 12.6284 4.72317L14.4232 1.59356C14.6497 1.19859 14.4462 0.695531 14.0096 0.568594C12.7119 0.191297 11.3629 0 10 0C8.63706 0 7.28809 0.191297 5.99041 0.568594C5.55325 0.695672 5.35061 1.19906 5.57678 1.59356L7.37158 4.72322C6.09634 5.12583 5.58841 6.36619 5.93327 7.41633C6.0205 7.68117 6.15597 7.9193 6.32823 8.12259C5.27941 8.71163 4.324 9.53081 3.48822 10.559C1.81755 12.6143 0.859375 15.2069 0.859375 17.6719C0.859375 22.7855 4.9397 24 10 24C15.0639 24 19.1406 22.7835 19.1406 17.6719C19.1406 15.2069 18.1825 12.6143 16.5118 10.559ZM7.25763 1.69772C8.15467 1.50408 9.07366 1.40625 10 1.40625C10.9263 1.40625 11.8453 1.50408 12.7424 1.69772L11.194 4.39781C10.4009 4.28709 9.59936 4.28714 8.80609 4.39786L7.25763 1.69772ZM7.717 6.08887C8.92708 5.69194 10.1931 5.6167 11.4239 5.86275C11.4253 5.86303 11.4268 5.86331 11.4283 5.86359C11.7152 5.92116 12.0001 5.99606 12.282 6.08855C12.6505 6.21 12.8519 6.60858 12.7311 6.97641C12.6433 7.2428 12.4115 7.42627 12.1388 7.45598C11.4377 7.23647 10.7227 7.125 10 7.125C9.27878 7.125 8.56511 7.236 7.86541 7.45463C7.58852 7.42613 7.35616 7.24134 7.26911 6.97706C7.14812 6.60858 7.3495 6.20995 7.717 6.08887ZM10 22.6031C4.50644 22.6031 2.26562 21.1678 2.26562 17.6719C2.26562 15.5558 3.13061 13.2285 4.57938 11.446C6.10727 9.56639 8.03233 8.53125 10 8.53125C12.1659 8.53125 14.0604 9.77259 15.4206 11.446C16.8694 13.2285 17.7344 15.5558 17.7344 17.6719C17.7344 21.1678 15.4936 22.6031 10 22.6031Z" fill="#0FC494"/>
</svg>
