<svg width="19" height="10" viewBox="0 0 19 10" fill="none" xmlns="http://www.w3.org/2000/svg">
<path d="M5.88 1.312C5.976 1.15733 6.10667 1.032 6.272 0.936C6.43733 0.84 6.61333 0.792 6.8 0.792H8.352L6.44 3.84C6.30667 4.05333 6.17067 4.22667 6.032 4.36C5.89333 4.488 5.72533 4.58933 5.528 4.664C5.79467 4.744 6.01333 4.864 6.184 5.024C6.35467 5.17867 6.50933 5.376 6.648 5.616L8.568 9H7.2C6.85333 9 6.584 8.94133 6.392 8.824C6.2 8.70667 6.03733 8.53867 5.904 8.32L4.696 6.048C4.58933 5.85067 4.45067 5.704 4.28 5.608C4.11467 5.512 3.92 5.464 3.696 5.464H2.952V9H0.976V0.792H2.952V4.176H3.592C3.816 4.176 3.99467 4.136 4.128 4.056C4.26667 3.97067 4.384 3.84267 4.48 3.672L5.88 1.312ZM15.7235 2.256H12.1395V9H10.1635V0.792H15.7235V2.256ZM16.2036 7.912C16.2036 7.74667 16.233 7.58933 16.2916 7.44C16.3556 7.29067 16.441 7.16267 16.5476 7.056C16.6543 6.94933 16.7823 6.864 16.9316 6.8C17.081 6.736 17.241 6.704 17.4116 6.704C17.5823 6.704 17.7396 6.736 17.8836 6.8C18.033 6.864 18.161 6.94933 18.2676 7.056C18.3796 7.16267 18.4676 7.29067 18.5316 7.44C18.5956 7.58933 18.6276 7.74667 18.6276 7.912C18.6276 8.08267 18.5956 8.24267 18.5316 8.392C18.4676 8.536 18.3796 8.66133 18.2676 8.768C18.161 8.87467 18.033 8.95733 17.8836 9.016C17.7396 9.08 17.5823 9.112 17.4116 9.112C17.241 9.112 17.081 9.08 16.9316 9.016C16.7823 8.95733 16.6543 8.87467 16.5476 8.768C16.441 8.66133 16.3556 8.536 16.2916 8.392C16.233 8.24267 16.2036 8.08267 16.2036 7.912Z" fill="#133B77"/>
</svg>
