<svg width="21" height="20" viewBox="0 0 21 20" fill="none" xmlns="http://www.w3.org/2000/svg">
<path d="M8.24008 17.7145C8.42595 17.8711 8.53276 18.0974 8.53276 18.3384V19.3382C8.53276 19.6039 8.2233 19.7541 8.00956 19.5921C7.92872 19.5307 6.0053 18.0652 4.05482 15.9637C1.36421 13.0646 0 10.4622 0 8.22917V8.00783C0 3.5923 3.82778 0 8.53276 0C13.0094 0 16.692 3.25214 17.0388 7.37121C17.0783 7.84074 16.9528 8.11293 16.2767 8.11505C15.6006 8.11717 15.367 7.37121 15.367 7.37121C15.0252 4.11497 12.0908 1.5625 8.53276 1.5625C4.74589 1.5625 1.66492 4.45393 1.66492 8.00783V8.22917C1.66492 11.805 6.31705 16.0944 8.24008 17.7145ZM8.53276 4.6875C10.4836 4.6875 12.0707 6.17704 12.0707 8.00783C12.0707 9.83863 10.4836 11.3282 8.53276 11.3282C6.58195 11.3282 4.99477 9.83863 4.99477 8.00783C4.99477 6.17704 6.58195 4.6875 8.53276 4.6875ZM8.53276 6.25C7.4999 6.25 6.6597 7.03852 6.6597 8.00783C6.6597 8.97699 7.4999 9.76566 8.53276 9.76566C9.56545 9.76566 10.4058 8.97699 10.4058 8.00783C10.4058 7.03852 9.56545 6.25 8.53276 6.25ZM20.6701 15.3329C20.4299 15.58 20.0352 15.5978 19.7731 15.3734V17.8818C19.7731 19.0498 18.7604 20 17.5158 20H12.2446C11.0001 20 9.98742 19.0498 9.98742 17.8818V15.3734C9.7253 15.5978 9.33058 15.58 9.09038 15.3329L8.98558 15.2251C8.66542 14.8957 8.68989 14.3694 9.03927 14.0703L14.8802 9.06938L20.7212 14.0703C21.0706 14.3694 21.0951 14.8957 20.7749 15.2251L20.6701 15.3329ZM18.1081 13.9479L14.8802 11.1844L11.6523 13.9479V17.8816C11.6523 18.1882 11.918 18.4375 12.2446 18.4375H17.5158C17.8425 18.4375 18.1081 18.1882 18.1081 17.8816V13.9479Z" fill="#0066FF"/>
</svg>
